<?xml version="1.0" encoding="utf-8"?>
<svg version="1.1" xmlns:xlink="http://www.w3.org/1999/xlink" width="20px" height="21px" xmlns="http://www.w3.org/2000/svg">
  <g transform="matrix(1 0 0 1 -599 -83 )">
    <path d="M 14.5454545454546 1.40625000000001  L 14.5454545454546 0.468750000000013  C 14.5454545454546 0.332031250000003  14.5880681818182 0.219726562499996  14.6732954545455 0.131835937499991  C 14.7585227272728 0.0439453124999872  14.8674242424242 0  15 0  L 19.0909090909091 0  C 19.3371212121212 0  19.5501893939394 0.0927734374999929  19.7301136363637 0.278320312500008  C 19.9100378787879 0.463867187499994  20 0.68359374999999  20 0.937499999999996  L 20 5.15624999999999  C 20 5.29296875  19.9573863636363 5.40527343750001  19.8721590909091 5.49316406250001  C 19.7869318181818 5.58105468749999  19.6780303030303 5.625  19.5454545454546 5.625  L 18.6363636363637 5.625  C 18.5037878787879 5.625  18.3948863636363 5.58105468749999  18.3096590909091 5.49316406250001  C 18.2244318181818 5.40527343750001  18.1818181818182 5.29296875  18.1818181818182 5.15624999999999  L 18.1818181818182 3.193359375  L 14.5738636363637 6.92871093750001  C 15.7670454545455 8.4716796875  16.3636363636363 10.224609375  16.3636363636363 12.1875  C 16.3636363636363 14.345703125  15.6652462121212 16.22314453125  14.2684659090909 17.81982421875  C 12.8716856060606 19.41650390625  11.1458333333333 20.33203125  9.0909090909091 20.56640625  L 7.27272727272725 20.56640625  C 5.86174242424243 20.41015625  4.5809659090909 19.9072265625  3.43039772727275 19.0576171875  C 2.27982954545455 18.2080078125  1.39678030303032 17.11669921875  0.78125 15.78369140625  C 0.165719696969681 14.45068359375  -0.0852272727272462 13.02734375  0.0284090909091015 11.513671875  C 0.179924242424232 9.52148437500001  0.9375 7.79541015624999  2.30113636363635 6.33544921874999  C 3.66477272727275 4.87548828124999  5.30776515151513 4.03320312500001  7.23011363636365 3.80859375  C 8.34753787878788 3.67187499999999  9.42708333333333 3.76464843750001  10.46875 4.0869140625  C 11.5104166666667 4.4091796875  12.4479166666667 4.91210937499999  13.28125 5.59570312500001  L 16.9034090909091 1.87499999999999  L 15 1.87499999999999  C 14.8674242424242 1.87499999999999  14.7585227272728 1.8310546875  14.6732954545455 1.7431640625  C 14.5880681818182 1.6552734375  14.5454545454546 1.54296874999999  14.5454545454546 1.40625000000001  Z M 3.68607954545455 16.82373046875  C 4.93134469696968 18.10791015625  6.42992424242423 18.75  8.1818181818182 18.75  C 9.93371212121212 18.75  11.4322916666667 18.10791015625  12.6775568181818 16.82373046875  C 13.922821969697 15.53955078125  14.5454545454546 13.994140625  14.5454545454546 12.1875  C 14.5454545454546 10.380859375  13.922821969697 8.83544921874999  12.6775568181818 7.55126953125  C 11.4322916666667 6.26708984375  9.93371212121212 5.625  8.1818181818182 5.625  C 6.42992424242423 5.625  4.93134469696968 6.26708984375  3.68607954545455 7.55126953125  C 2.44081439393942 8.83544921874999  1.8181818181818 10.380859375  1.8181818181818 12.1875  C 1.8181818181818 13.994140625  2.44081439393942 15.53955078125  3.68607954545455 16.82373046875  Z " fill-rule="nonzero" fill="#000000" stroke="none" transform="matrix(1 0 0 1 599 83 )" />
  </g>
</svg>