<?xml version="1.0" encoding="utf-8"?>
<svg version="1.1" xmlns:xlink="http://www.w3.org/1999/xlink" width="35px" height="27px" xmlns="http://www.w3.org/2000/svg">
  <g transform="matrix(1 0 0 1 -263 -20 )">
    <path d="M 34.5670572916667 22.00078125  C 34.8556857638889 22.26796875  35 22.584375  35 22.95  L 35 25.65  C 35 26.015625  34.8556857638889 26.33203125  34.5670572916667 26.59921875  C 34.2784288194445 26.86640625  33.9366319444445 27  33.5416666666667 27  L 1.45833333333333 27  C 1.06336805555556 27  0.721571180555556 26.86640625  0.432942708333333 26.59921875  C 0.144314236111111 26.33203125  0 26.015625  0 25.65  L 0 22.95  C 0 22.584375  0.144314236111111 22.26796875  0.432942708333333 22.00078125  C 0.721571180555556 21.73359375  1.06336805555556 21.6  1.45833333333333 21.6  L 33.5416666666667 21.6  C 33.9366319444445 21.6  34.2784288194445 21.73359375  34.5670572916667 22.00078125  Z M 34.5670572916667 11.20078125  C 34.8556857638889 11.46796875  35 11.784375  35 12.15  L 35 14.85  C 35 15.215625  34.8556857638889 15.53203125  34.5670572916667 15.79921875  C 34.2784288194445 16.06640625  33.9366319444445 16.2  33.5416666666667 16  L 1.45833333333333 16  C 1.06336805555556 16.2  0.721571180555556 16.06640625  0.432942708333333 15.79921875  C 0.144314236111111 15.53203125  0 15.215625  0 14.85  L 0 12.15  C 0 11.784375  0.144314236111111 11.46796875  0.432942708333333 11.20078125  C 0.721571180555556 10.93359375  1.06336805555556 10.8  1.45833333333333 11  L 33.5416666666667 11  C 33.9366319444445 10.8  34.2784288194445 10.93359375  34.5670572916667 11.20078125  Z M 34.5670572916667 0.400781250000001  C 34.8556857638889 0.667968749999998  35 0.984374999999998  35 1.35  L 35 4.05  C 35 4.415625  34.8556857638889 4.73203125  34.5670572916667 4.99921875  C 34.2784288194445 5.26640625  33.9366319444445 5.4  33.5416666666667 5.4  L 1.45833333333333 5.4  C 1.06336805555556 5.4  0.721571180555556 5.26640625  0.432942708333333 4.99921875  C 0.144314236111111 4.73203125  0 4.415625  0 4.05  L 0 1.35  C 0 0.984374999999998  0.144314236111111 0.667968749999998  0.432942708333333 0.400781250000001  C 0.721571180555556 0.133593749999998  1.06336805555556 0  1.45833333333333 0  L 33.5416666666667 0  C 33.9366319444445 0  34.2784288194445 0.133593749999998  34.5670572916667 0.400781250000001  Z " fill-rule="nonzero" fill="#808080" stroke="none" transform="matrix(1 0 0 1 263 20 )" />
  </g>
</svg>