<?xml version="1.0" encoding="utf-8"?>
<svg version="1.1" xmlns:xlink="http://www.w3.org/1999/xlink" width="27px" height="22px" xmlns="http://www.w3.org/2000/svg">
  <g transform="matrix(1 0 0 1 -223 -9 )">
    <path d="M 25.0714285714286 1.83094928478544  L 25.0714285714286 7.32379713914174  C 25.6037946428571 7.32379713914174  26.0583147321429 7.50260078023407  26.4349888392857 7.86020806241873  C 26.8116629464286 8.21781534460338  27 8.64932813177287  27 9.15474642392718  C 27 9.66016471608149  26.8116629464286 10.091677503251  26.4349888392857 10.4492847854356  C 26.0583147321429 10.8068920676203  25.6037946428571 10.9856957087126  25.0714285714286 10.9856957087126  L 25.0714285714286 16.4785435630689  C 25.0714285714286 16.9744256610316  24.8805803571429 17.4035543996532  24.4988839285714 17.7659297789337  C 24.1171875 18.1283051582141  23.6651785714286 18.3094928478544  23.1428571428571 18.3094928478544  C 18.9542410714286 15.0004334633723  14.8761160714286 13.1885565669701  10.9084821428571 12.8738621586476  C 10.3258928571429 13.0550498482878  9.86886160714286 13.3697442566103  9.53738839285714 13.8179453836151  C 9.20591517857143 14.2661465106199  9.05022321428572 14.7453402687473  9.0703125 15.2555266579974  C 9.09040178571429 15.7657130472475  9.29129464285714 16.2067620286086  9.67299107142857 16.5786736020806  C 9.47209821428572 16.8933680104031  9.35658482142857 17.2056783701777  9.32645089285714 17.5156046814044  C 9.29631696428571 17.8255309926311  9.32645089285714 18.1020806241873  9.41685267857143 18.3452535760728  C 9.50725446428571 18.5884265279584  9.67550223214286 18.8506718682271  9.92159598214286 19.1319895968791  C 10.1676897321429 19.413307325531  10.4087611607143 19.6517121803208  10.6448102678571 19.8472041612484  C 10.880859375 20.042696142176  11.1897321428571 20.2834850455137  11.5714285714286 20.5695708712614  C 11.2801339285714 21.1226701343736  10.7201450892857 21.5184221933247  9.89146205357143 21.7568270481144  C 9.06277901785714 21.9952319029042  8.21651785714286 22.0500650195059  7.35267857142857 21.9213263979194  C 6.48883928571429 21.7925877763329  5.82589285714286 21.5279583875163  5.36383928571429 21.1274382314694  C 5.29352678571429 20.9081057650629  5.14536830357143 20.4908972691808  4.91936383928571 19.8758127438231  C 4.693359375 19.2607282184655  4.53264508928572 18.8101430429129  4.43722098214286 18.5240572171651  C 4.341796875 18.2379713914174  4.22628348214286 17.8136107498916  4.09068080357143 17.2509752925878  C 3.955078125 16.6883398352839  3.87974330357143 16.2067620286086  3.86467633928571 15.8062418725618  C 3.849609375 15.405721716515  3.8671875 14.9360641525791  3.91741071428571 14.3972691807542  C 3.96763392857143 13.8584742089293  4.078125 13.331599479844  4.24888392857143 12.816644993498  L 2.41071428571429 12.816644993498  C 1.74776785714286 12.816644993498  1.18024553571429 12.5925444299957  0.708147321428571 12.1443433029909  C 0.236049107142857 11.6961421759861  0 11.1573472041612  0 10.5279583875163  L 0 7.7815344603381  C 0 7.15214564369311  0.236049107142857 6.61335067186823  0.708147321428571 6.16514954486346  C 1.18024553571429 5.71694841785869  1.74776785714286 5.49284785435631  2.41071428571429 5.49284785435631  L 9.64285714285714 5.49284785435631  C 14.0122767857143 5.49284785435631  18.5122767857143 3.66189856957087  23.1428571428571 0  C 23.6651785714286 0  24.1171875 0.181187689640223  24.4988839285714 0.543563068920677  C 24.8805803571429 0.905938448201125  25.0714285714286 1.33506718682271  25.0714285714286 1.83094928478544  Z M 11.5714285714286 11.0858257477243  C 15.3582589285714 11.4863459037711  19.2154017857143 13.1122670134374  23 15.963589076723  L 23 2.31729518855657  C 19.1852678571429 5.19722583441699  15.328125 6.83268313827481  11.5714285714286 7.22366710013004  L 11.5714285714286 11.0858257477243  Z " fill-rule="nonzero" fill="#ffffff" stroke="none" transform="matrix(1 0 0 1 223 9 )" />
  </g>
</svg>