<?xml version="1.0" encoding="utf-8"?>
<svg version="1.1" xmlns:xlink="http://www.w3.org/1999/xlink" width="19px" height="16px" xmlns="http://www.w3.org/2000/svg">
  <g transform="matrix(1 0 0 1 -31 -706 )">
    <path d="M 7.73086734693878 14.63125  C 7.72278911564626 14.6770833333333  7.73086734693878 14.7333333333333  7.75510204081633 14.8  C 7.75510204081633 14.8333333333333  7.75914115646259 14.9166666666667  7.7672193877551 15.05  C 7.77529761904762 15.1833333333333  7.77731717687075 15.29375  7.77327806122449 15.38125  C 7.76923894557823 15.46875  7.75712159863946 15.5666666666667  7.73692602040816 15.675  C 7.71673044217687 15.7833333333333  7.67633928571429 15.8645833333333  7.61575255102041 15.91875  C 7.55516581632653 15.9729166666667  7.47236394557823 16  7.36734693877551 16  L 3.48979591836735 16  C 2.52848639455782 16  1.70652636054422 15.6479166666667  1.02391581632653 14.94375  C 0.341305272108844 14.2395833333333  0 13.3916666666667  0 12.4  L 0 3.6  C 0 2.60833333333333  0.341305272108844 1.76041666666667  1.02391581632653 1.05625  C 1.70652636054422 0.352083333333331  2.52848639455782 0  3.48979591836735 0  L 7.36734693877551 0  C 7.47236394557823 0  7.56324404761905 0.0395833333333311  7.63998724489796 0.11875  C 7.71673044217687 0.197916666666666  7.75510204081633 0.291666666666666  7.75510204081633 0.4  C 7.75510204081633 0.433333333333332  7.75914115646259 0.516666666666666  7.7672193877551 0.65  C 7.77529761904762 0.783333333333331  7.77731717687075 0.893750000000001  7.77327806122449 0.981249999999999  C 7.76923894557823 1.06875  7.75712159863946 1.16666666666667  7.73692602040816 1.275  C 7.71673044217687 1.38333333333333  7.67633928571429 1.46458333333333  7.61575255102041 1.51875  C 7.55516581632653 1.57291666666667  7.47236394557823 1.6  7.36734693877551 1.6  L 3.48979591836735 1.6  C 2.95663265306122 1.6  2.50021258503401 1.79583333333333  2.12053571428571 2.1875  C 1.74085884353742 2.57916666666667  1.55102040816327 3.05  1.55102040816327 3.6  L 1.55102040816327 12.4  C 1.55102040816327 12.95  1.74085884353742 13.4208333333333  2.12053571428571 13.8125  C 2.50021258503401 14.2041666666667  2.95663265306122 14.4  3.48979591836735 14.4  L 6.97959183673469 14.4  L 7.11288265306122 14.4  L 7.27040816326531 14.4  C 7.27040816326531 14.4  7.31685799319728 14.4041666666667  7.40975765306122 14.4125  C 7.50265731292517 14.4208333333333  7.54910714285714 14.4333333333333  7.54910714285714 14.45  C 7.54910714285714 14.4666666666667  7.58142006802721 14.4895833333333  7.64604591836735 14.51875  C 7.71067176870748 14.5479166666667  7.73894557823129 14.5854166666667  7.73086734693878 14.63125  Z M 18.7697704081633 7.4375  C 18.9232568027211 7.59583333333333  19 7.78333333333333  19 8  C 19 8.21666666666667  18.9232568027211 8.40416666666667  18.7697704081633 8.5625  L 12.1779336734694 15.3625  C 12.0244472789116 15.5208333333333  11.8426870748299 15.6  11.6326530612245 15.6  C 11.422619047619 15.6  11.2408588435374 15.5208333333333  11.0873724489796 15.3625  C 10.9338860544218 15.2041666666667  10.8571428571429 15.0166666666667  10.8571428571429 14.8  L 10.8571428571429 11.2  L 5.42857142857143 11.2  C 5.21853741496599 11.2  5.03677721088435 11.1208333333333  4.88329081632653 10.9625  C 4.72980442176871 10.8041666666667  4.6530612244898 10.6166666666667  4.6530612244898 10.4  L 4.6530612244898 5.6  C 4.6530612244898 5.38333333333333  4.72980442176871 5.19583333333333  4.88329081632653 5.0375  C 5.03677721088435 4.87916666666667  5.21853741496599 4.8  5.42857142857143 4.8  L 10.8571428571429 4.8  L 10.8571428571429 1.2  C 10.8571428571429 0.983333333333331  10.9338860544218 0.795833333333331  11.0873724489796 0.637499999999999  C 11.2408588435374 0.479166666666666  11.422619047619 0.4  11.6326530612245 0.4  C 11.8426870748299 0.4  12.0244472789116 0.479166666666666  12.1779336734694 0.637499999999999  L 18.7697704081633 7.4375  Z " fill-rule="nonzero" fill="#5e5e5e" stroke="none" transform="matrix(1 0 0 1 31 706 )" />
  </g>
</svg>