<?xml version="1.0" encoding="utf-8"?>
<svg version="1.1" xmlns:xlink="http://www.w3.org/1999/xlink" width="20px" height="14px" xmlns="http://www.w3.org/2000/svg">
  <defs>
    <mask fill="white" id="clip905">
      <path d="M 12.4007092198582 13.438056435793  C 11.7076906727365 13.7837640687718  10.9925345665883 14.0047338206266  10.0349854227405 13.9801418439716  C 10.010212017458 13.9810203335207  9.98560040747225 13.9817379425742  9.9611469166118 13.9822966528491  C 9.00551464330705 14.0041308184967  8.29136410547739 13.7832925512523  7.59929078014185 13.438056435793  C 7.18053997261523 13.2291654168162  6.59049093360631 12.7546063155526  6.09219858156029 12.4521905336754  C 5.78079826221151 12.2382003668243  5.17021276595745 11.8888385896082  5.17021276595745 11.8888385896082  C 5.17021276595745 11.8888385896082  4.49704240494885 11.6096161859207  3.9645390070922 11.5191388763141  C 3.39184145932237 11.421832204565  1.83687943262412 11.3783008902973  1.83687943262412 11.3783008902973  C 1.83687943262412 11.3783008902973  0.294326241134752 11.1318344147679  0.0815602836879435 9.84668779236458  C -0.131205673758865 8.56154116996128  0.914893617021281 8.08621296715457  0.914893617021281 8.08621296715457  C 0.914893617021281 8.08621296715457  0.241134751773058 7.01232332377647  0.702127659574472 6.16729540767567  C 1.16312056737589 5.32226749157487  1.83687943262412 5.35747698807907  1.83687943262412 5.35747698807907  C 1.83687943262412 5.35747698807907  1.69679300291545 4.27963525835866  2.25072886297376 3.78752352004632  C 2.80466472303207 3.29541178173397  3.42857142857143 3.46099290780142  3.42857142857143 3.46099290780142  C 3.42857142857143 3.46099290780142  3.47521865889212 2.71645679548415  4.14577259475218 2.13750180923433  C 4.81632653061224 1.55854682298451  5.74927113702624 1.93486756404689  5.74927113702624 1.93486756404689  C 5.74927113702624 1.93486756404689  5.80758017492711 1.12433058329715  6.85714285714286 0.719062092922275  C 7.9067055393586 0.313793602547402  8.51895043731778 0.979591836734693  8.51895043731778 0.979591836734693  C 8.51895043731778 0.979591836734693  9.0594823021954 0.0474316218281769  10.00003234791 0.0526403935630268  C 10.9405424855045 0.0474743688134483  11.4810495626822 0.979591836734693  11.4810495626822 0.979591836734693  C 11.4810495626822 0.979591836734693  12.0932944606414 0.313793602547402  13.1428571428571 0.719062092922275  C 14.1924198250729 1.12433058329715  14.2507288629738 1.93486756404689  14.2507288629738 1.93486756404689  C 14.2507288629738 1.93486756404689  15.1836734693878 1.55854682298451  15.8542274052478 2.13750180923433  C 16.5247813411079 2.71645679548415  16.5714285714286 3.46099290780142  16.5714285714286 3.46099290780142  C 16.5714285714286 3.46099290780142  17.1953352769679 3.29541178173397  17.7492711370262 3.78752352004632  C 18.3032069970845 4.27963525835866  18.1631205673759 5.35747698807907  18.1631205673759 5.35747698807907  C 18.1631205673759 5.35747698807907  18.8368794326241 5.32226749157487  19.2978723404255 6.16729540767567  C 19.7588652482269 7.01232332377647  19.0851063829787 8.08621296715457  19.0851063829787 8.08621296715457  C 19.0851063829787 8.08621296715457  20.1312056737589 8.56154116996128  19.9184397163121 9.84668779236458  C 19.7056737588652 11.1318344147679  18.1631205673759 11.3783008902973  18.1631205673759 11.3783008902973  C 18.1631205673759 11.3783008902973  16.6081585406776 11.421832204565  16.0354609929078 11.5191388763141  C 15.5029575950511 11.6096161859207  14.8297872340426 11.8888385896082  14.8297872340426 11.8888385896082  C 14.8297872340426 11.8888385896082  14.2192017377885 12.2382003668243  13.9078014184397 12.4521905336754  C 13.4095090663937 12.7546063155526  12.8194600273848 13.2291654168162  12.4007092198582 13.438056435793  Z " fill-rule="evenodd" />
    </mask>
  </defs>
  <g transform="matrix(1 0 0 1 -68 -752 )">
    <path d="M 12.4007092198582 13.438056435793  C 11.7076906727365 13.7837640687718  10.9925345665883 14.0047338206266  10.0349854227405 13.9801418439716  C 10.010212017458 13.9810203335207  9.98560040747225 13.9817379425742  9.9611469166118 13.9822966528491  C 9.00551464330705 14.0041308184967  8.29136410547739 13.7832925512523  7.59929078014185 13.438056435793  C 7.18053997261523 13.2291654168162  6.59049093360631 12.7546063155526  6.09219858156029 12.4521905336754  C 5.78079826221151 12.2382003668243  5.17021276595745 11.8888385896082  5.17021276595745 11.8888385896082  C 5.17021276595745 11.8888385896082  4.49704240494885 11.6096161859207  3.9645390070922 11.5191388763141  C 3.39184145932237 11.421832204565  1.83687943262412 11.3783008902973  1.83687943262412 11.3783008902973  C 1.83687943262412 11.3783008902973  0.294326241134752 11.1318344147679  0.0815602836879435 9.84668779236458  C -0.131205673758865 8.56154116996128  0.914893617021281 8.08621296715457  0.914893617021281 8.08621296715457  C 0.914893617021281 8.08621296715457  0.241134751773058 7.01232332377647  0.702127659574472 6.16729540767567  C 1.16312056737589 5.32226749157487  1.83687943262412 5.35747698807907  1.83687943262412 5.35747698807907  C 1.83687943262412 5.35747698807907  1.69679300291545 4.27963525835866  2.25072886297376 3.78752352004632  C 2.80466472303207 3.29541178173397  3.42857142857143 3.46099290780142  3.42857142857143 3.46099290780142  C 3.42857142857143 3.46099290780142  3.47521865889212 2.71645679548415  4.14577259475218 2.13750180923433  C 4.81632653061224 1.55854682298451  5.74927113702624 1.93486756404689  5.74927113702624 1.93486756404689  C 5.74927113702624 1.93486756404689  5.80758017492711 1.12433058329715  6.85714285714286 0.719062092922275  C 7.9067055393586 0.313793602547402  8.51895043731778 0.979591836734693  8.51895043731778 0.979591836734693  C 8.51895043731778 0.979591836734693  9.0594823021954 0.0474316218281769  10.00003234791 0.0526403935630268  C 10.9405424855045 0.0474743688134483  11.4810495626822 0.979591836734693  11.4810495626822 0.979591836734693  C 11.4810495626822 0.979591836734693  12.0932944606414 0.313793602547402  13.1428571428571 0.719062092922275  C 14.1924198250729 1.12433058329715  14.2507288629738 1.93486756404689  14.2507288629738 1.93486756404689  C 14.2507288629738 1.93486756404689  15.1836734693878 1.55854682298451  15.8542274052478 2.13750180923433  C 16.5247813411079 2.71645679548415  16.5714285714286 3.46099290780142  16.5714285714286 3.46099290780142  C 16.5714285714286 3.46099290780142  17.1953352769679 3.29541178173397  17.7492711370262 3.78752352004632  C 18.3032069970845 4.27963525835866  18.1631205673759 5.35747698807907  18.1631205673759 5.35747698807907  C 18.1631205673759 5.35747698807907  18.8368794326241 5.32226749157487  19.2978723404255 6.16729540767567  C 19.7588652482269 7.01232332377647  19.0851063829787 8.08621296715457  19.0851063829787 8.08621296715457  C 19.0851063829787 8.08621296715457  20.1312056737589 8.56154116996128  19.9184397163121 9.84668779236458  C 19.7056737588652 11.1318344147679  18.1631205673759 11.3783008902973  18.1631205673759 11.3783008902973  C 18.1631205673759 11.3783008902973  16.6081585406776 11.421832204565  16.0354609929078 11.5191388763141  C 15.5029575950511 11.6096161859207  14.8297872340426 11.8888385896082  14.8297872340426 11.8888385896082  C 14.8297872340426 11.8888385896082  14.2192017377885 12.2382003668243  13.9078014184397 12.4521905336754  C 13.4095090663937 12.7546063155526  12.8194600273848 13.2291654168162  12.4007092198582 13.438056435793  Z " fill-rule="nonzero" fill="#ffffff" stroke="none" fill-opacity="0" transform="matrix(1 0 0 1 68 752 )" />
    <path d="M 12.4007092198582 13.438056435793  C 11.7076906727365 13.7837640687718  10.9925345665883 14.0047338206266  10.0349854227405 13.9801418439716  C 10.010212017458 13.9810203335207  9.98560040747225 13.9817379425742  9.9611469166118 13.9822966528491  C 9.00551464330705 14.0041308184967  8.29136410547739 13.7832925512523  7.59929078014185 13.438056435793  C 7.18053997261523 13.2291654168162  6.59049093360631 12.7546063155526  6.09219858156029 12.4521905336754  C 5.78079826221151 12.2382003668243  5.17021276595745 11.8888385896082  5.17021276595745 11.8888385896082  C 5.17021276595745 11.8888385896082  4.49704240494885 11.6096161859207  3.9645390070922 11.5191388763141  C 3.39184145932237 11.421832204565  1.83687943262412 11.3783008902973  1.83687943262412 11.3783008902973  C 1.83687943262412 11.3783008902973  0.294326241134752 11.1318344147679  0.0815602836879435 9.84668779236458  C -0.131205673758865 8.56154116996128  0.914893617021281 8.08621296715457  0.914893617021281 8.08621296715457  C 0.914893617021281 8.08621296715457  0.241134751773058 7.01232332377647  0.702127659574472 6.16729540767567  C 1.16312056737589 5.32226749157487  1.83687943262412 5.35747698807907  1.83687943262412 5.35747698807907  C 1.83687943262412 5.35747698807907  1.69679300291545 4.27963525835866  2.25072886297376 3.78752352004632  C 2.80466472303207 3.29541178173397  3.42857142857143 3.46099290780142  3.42857142857143 3.46099290780142  C 3.42857142857143 3.46099290780142  3.47521865889212 2.71645679548415  4.14577259475218 2.13750180923433  C 4.81632653061224 1.55854682298451  5.74927113702624 1.93486756404689  5.74927113702624 1.93486756404689  C 5.74927113702624 1.93486756404689  5.80758017492711 1.12433058329715  6.85714285714286 0.719062092922275  C 7.9067055393586 0.313793602547402  8.51895043731778 0.979591836734693  8.51895043731778 0.979591836734693  C 8.51895043731778 0.979591836734693  9.0594823021954 0.0474316218281769  10.00003234791 0.0526403935630268  C 10.9405424855045 0.0474743688134483  11.4810495626822 0.979591836734693  11.4810495626822 0.979591836734693  C 11.4810495626822 0.979591836734693  12.0932944606414 0.313793602547402  13.1428571428571 0.719062092922275  C 14.1924198250729 1.12433058329715  14.2507288629738 1.93486756404689  14.2507288629738 1.93486756404689  C 14.2507288629738 1.93486756404689  15.1836734693878 1.55854682298451  15.8542274052478 2.13750180923433  C 16.5247813411079 2.71645679548415  16.5714285714286 3.46099290780142  16.5714285714286 3.46099290780142  C 16.5714285714286 3.46099290780142  17.1953352769679 3.29541178173397  17.7492711370262 3.78752352004632  C 18.3032069970845 4.27963525835866  18.1631205673759 5.35747698807907  18.1631205673759 5.35747698807907  C 18.1631205673759 5.35747698807907  18.8368794326241 5.32226749157487  19.2978723404255 6.16729540767567  C 19.7588652482269 7.01232332377647  19.0851063829787 8.08621296715457  19.0851063829787 8.08621296715457  C 19.0851063829787 8.08621296715457  20.1312056737589 8.56154116996128  19.9184397163121 9.84668779236458  C 19.7056737588652 11.1318344147679  18.1631205673759 11.3783008902973  18.1631205673759 11.3783008902973  C 18.1631205673759 11.3783008902973  16.6081585406776 11.421832204565  16.0354609929078 11.5191388763141  C 15.5029575950511 11.6096161859207  14.8297872340426 11.8888385896082  14.8297872340426 11.8888385896082  C 14.8297872340426 11.8888385896082  14.2192017377885 12.2382003668243  13.9078014184397 12.4521905336754  C 13.4095090663937 12.7546063155526  12.8194600273848 13.2291654168162  12.4007092198582 13.438056435793  Z " stroke-width="2" stroke="#6b6b6b" fill="none" transform="matrix(1 0 0 1 68 752 )" mask="url(#clip905)" />
  </g>
</svg>