<?xml version="1.0" encoding="utf-8"?>
<svg version="1.1" xmlns:xlink="http://www.w3.org/1999/xlink" width="7px" height="7px" xmlns="http://www.w3.org/2000/svg">
  <defs>
    <mask fill="white" id="clip906">
      <path d="M 4.66302614243118 0.213303604607951  L 5.2697801816795 0.50890172629303  C 5.2697801816795 0.50890172629303  5.69794989697742 0.819422394118131  5.80372373621802 0.922739096652142  C 5.94970428294234 1.0653285008938  6.3133971291866 1.45982905982906  6.3133971291866 1.45982905982906  C 6.3133971291866 1.45982905982906  5.59742736287359 0.970034796121753  5.1605644546148 0.792675923110705  C 4.72370154635601 0.615317050099657  4.3888262185357 0.504085858833185  4.25043339574232 0.50890172629303  C 3.91065113376326 0.520725651160436  3.66794951806394 0.46160602682342  3.31603217529991 0.50890172629303  C 2.96411483253589 0.556197425762641  2.72634439022235 0.618581376377748  2.3452257125026 0.792675923110705  C 1.43464388757327 1.20862858914853  1.10526315789474 1.98632478632479  1.10526315789474 1.98632478632479  C 1.10526315789474 1.98632478632479  0.724561403508773 2.56068376068376  0.749122807017543 3.37435897435898  C 0.773684210526314 4.18803418803418  1.2652035226406 4.85811965811966  1.2652035226406 4.85811965811966  C 1.2652035226406 4.85811965811966  1.80526315789474 5.91111111111111  3.52456140350877 5.93504273504273  C 5.24385964912281 5.95897435897436  5.66598945307257 5.13066028729629  5.80372373621802 4.92363287172748  C 5.94145801936346 4.71660545615868  6.17795144892454 4.26323326257623  6.11743550729649 3.47311230162742  C 6.05691956566844 2.6829913406786  5.73013348087696 2.24665588463223  5.41578947368421 1.98632478632479  C 5.10144546649146 1.72599368801734  4.77398160315374 1.53908487482732  3.99122807017544 1.45982905982906  C 3.20847453719714 1.3805732448308  2.44385964912281 1.84273504273504  2.44385964912281 1.84273504273504  C 2.44385964912281 1.84273504273504  2.69714305526663 1.46663964055269  3.15827612509535 1.31292861727644  C 3.61940919492407 1.15921759400021  3.95919145690313 1.06462619506098  4.39605436516192 1.10009796966319  C 4.83291727342071 1.1355697442654  5.13629429304487 1.20651329346982  5.54888703973372 1.38387216648087  C 5.96147978642258 1.56123103949191  6.3133971291866 1.98632478632479  6.3133971291866 1.98632478632479  C 6.3133971291866 1.98632478632479  6.68684210526316 2.32435897435897  6.84342105263159 2.97948717948718  C 7.00000000000001 3.63461538461539  6.97236842105263 4.29871794871795  6.84342105263159 4.67564102564103  C 6.71447368421054 5.05256410256412  6.40941253641036 5.65819982872138  5.71052631578947 6.20803351238134  C 5.01169393367173 6.75782483975836  4.36578947368421 6.89230769230769  3.8621108106234 6.91025641025641  C 3.35843214756259 6.92820512820513  2.42236842105263 6.89230769230769  1.33801400735039 6.11344211344211  C 0.253659593648153 5.33457653457653  0.110526315789473 4.63076923076923  0.0552631578947363 4.09230769230769  C 0 3.55384615384616  0.0516954441439583 2.71997567649741  0.355072463768117 2.08148373365765  C 0.658449483392275 1.44299179081788  0.838157894736842 1.31025641025641  1.05921052631579 1.10009796966319  C 1.28026315789474 0.889939529069969  1.43509465363012 0.78085199824331  1.79914707717911 0.579845275497452  C 2.16319950072811 0.378838552751593  2.58792732820193 0.20147967974055  2.86703418625616 0.154183980270935  C 3.14614104431038 0.106888280801324  3.69447375437228 0.0748191977801706  3.95919145690313 0.0897435897435897  C 4.3255743049416 0.11039971202224  4.66302614243118 0.213303604607951  4.66302614243118 0.213303604607951  Z " fill-rule="evenodd" />
    </mask>
  </defs>
  <g transform="matrix(1 0 0 1 -71 -756 )">
    <path d="M 4.66302614243118 0.213303604607951  L 5.2697801816795 0.50890172629303  C 5.2697801816795 0.50890172629303  5.69794989697742 0.819422394118131  5.80372373621802 0.922739096652142  C 5.94970428294234 1.0653285008938  6.3133971291866 1.45982905982906  6.3133971291866 1.45982905982906  C 6.3133971291866 1.45982905982906  5.59742736287359 0.970034796121753  5.1605644546148 0.792675923110705  C 4.72370154635601 0.615317050099657  4.3888262185357 0.504085858833185  4.25043339574232 0.50890172629303  C 3.91065113376326 0.520725651160436  3.66794951806394 0.46160602682342  3.31603217529991 0.50890172629303  C 2.96411483253589 0.556197425762641  2.72634439022235 0.618581376377748  2.3452257125026 0.792675923110705  C 1.43464388757327 1.20862858914853  1.10526315789474 1.98632478632479  1.10526315789474 1.98632478632479  C 1.10526315789474 1.98632478632479  0.724561403508773 2.56068376068376  0.749122807017543 3.37435897435898  C 0.773684210526314 4.18803418803418  1.2652035226406 4.85811965811966  1.2652035226406 4.85811965811966  C 1.2652035226406 4.85811965811966  1.80526315789474 5.91111111111111  3.52456140350877 5.93504273504273  C 5.24385964912281 5.95897435897436  5.66598945307257 5.13066028729629  5.80372373621802 4.92363287172748  C 5.94145801936346 4.71660545615868  6.17795144892454 4.26323326257623  6.11743550729649 3.47311230162742  C 6.05691956566844 2.6829913406786  5.73013348087696 2.24665588463223  5.41578947368421 1.98632478632479  C 5.10144546649146 1.72599368801734  4.77398160315374 1.53908487482732  3.99122807017544 1.45982905982906  C 3.20847453719714 1.3805732448308  2.44385964912281 1.84273504273504  2.44385964912281 1.84273504273504  C 2.44385964912281 1.84273504273504  2.69714305526663 1.46663964055269  3.15827612509535 1.31292861727644  C 3.61940919492407 1.15921759400021  3.95919145690313 1.06462619506098  4.39605436516192 1.10009796966319  C 4.83291727342071 1.1355697442654  5.13629429304487 1.20651329346982  5.54888703973372 1.38387216648087  C 5.96147978642258 1.56123103949191  6.3133971291866 1.98632478632479  6.3133971291866 1.98632478632479  C 6.3133971291866 1.98632478632479  6.68684210526316 2.32435897435897  6.84342105263159 2.97948717948718  C 7.00000000000001 3.63461538461539  6.97236842105263 4.29871794871795  6.84342105263159 4.67564102564103  C 6.71447368421054 5.05256410256412  6.40941253641036 5.65819982872138  5.71052631578947 6.20803351238134  C 5.01169393367173 6.75782483975836  4.36578947368421 6.89230769230769  3.8621108106234 6.91025641025641  C 3.35843214756259 6.92820512820513  2.42236842105263 6.89230769230769  1.33801400735039 6.11344211344211  C 0.253659593648153 5.33457653457653  0.110526315789473 4.63076923076923  0.0552631578947363 4.09230769230769  C 0 3.55384615384616  0.0516954441439583 2.71997567649741  0.355072463768117 2.08148373365765  C 0.658449483392275 1.44299179081788  0.838157894736842 1.31025641025641  1.05921052631579 1.10009796966319  C 1.28026315789474 0.889939529069969  1.43509465363012 0.78085199824331  1.79914707717911 0.579845275497452  C 2.16319950072811 0.378838552751593  2.58792732820193 0.20147967974055  2.86703418625616 0.154183980270935  C 3.14614104431038 0.106888280801324  3.69447375437228 0.0748191977801706  3.95919145690313 0.0897435897435897  C 4.3255743049416 0.11039971202224  4.66302614243118 0.213303604607951  4.66302614243118 0.213303604607951  Z " fill-rule="nonzero" fill="#6b6b6b" stroke="none" transform="matrix(1 0 0 1 71 756 )" />
    <path d="M 4.66302614243118 0.213303604607951  L 5.2697801816795 0.50890172629303  C 5.2697801816795 0.50890172629303  5.69794989697742 0.819422394118131  5.80372373621802 0.922739096652142  C 5.94970428294234 1.0653285008938  6.3133971291866 1.45982905982906  6.3133971291866 1.45982905982906  C 6.3133971291866 1.45982905982906  5.59742736287359 0.970034796121753  5.1605644546148 0.792675923110705  C 4.72370154635601 0.615317050099657  4.3888262185357 0.504085858833185  4.25043339574232 0.50890172629303  C 3.91065113376326 0.520725651160436  3.66794951806394 0.46160602682342  3.31603217529991 0.50890172629303  C 2.96411483253589 0.556197425762641  2.72634439022235 0.618581376377748  2.3452257125026 0.792675923110705  C 1.43464388757327 1.20862858914853  1.10526315789474 1.98632478632479  1.10526315789474 1.98632478632479  C 1.10526315789474 1.98632478632479  0.724561403508773 2.56068376068376  0.749122807017543 3.37435897435898  C 0.773684210526314 4.18803418803418  1.2652035226406 4.85811965811966  1.2652035226406 4.85811965811966  C 1.2652035226406 4.85811965811966  1.80526315789474 5.91111111111111  3.52456140350877 5.93504273504273  C 5.24385964912281 5.95897435897436  5.66598945307257 5.13066028729629  5.80372373621802 4.92363287172748  C 5.94145801936346 4.71660545615868  6.17795144892454 4.26323326257623  6.11743550729649 3.47311230162742  C 6.05691956566844 2.6829913406786  5.73013348087696 2.24665588463223  5.41578947368421 1.98632478632479  C 5.10144546649146 1.72599368801734  4.77398160315374 1.53908487482732  3.99122807017544 1.45982905982906  C 3.20847453719714 1.3805732448308  2.44385964912281 1.84273504273504  2.44385964912281 1.84273504273504  C 2.44385964912281 1.84273504273504  2.69714305526663 1.46663964055269  3.15827612509535 1.31292861727644  C 3.61940919492407 1.15921759400021  3.95919145690313 1.06462619506098  4.39605436516192 1.10009796966319  C 4.83291727342071 1.1355697442654  5.13629429304487 1.20651329346982  5.54888703973372 1.38387216648087  C 5.96147978642258 1.56123103949191  6.3133971291866 1.98632478632479  6.3133971291866 1.98632478632479  C 6.3133971291866 1.98632478632479  6.68684210526316 2.32435897435897  6.84342105263159 2.97948717948718  C 7.00000000000001 3.63461538461539  6.97236842105263 4.29871794871795  6.84342105263159 4.67564102564103  C 6.71447368421054 5.05256410256412  6.40941253641036 5.65819982872138  5.71052631578947 6.20803351238134  C 5.01169393367173 6.75782483975836  4.36578947368421 6.89230769230769  3.8621108106234 6.91025641025641  C 3.35843214756259 6.92820512820513  2.42236842105263 6.89230769230769  1.33801400735039 6.11344211344211  C 0.253659593648153 5.33457653457653  0.110526315789473 4.63076923076923  0.0552631578947363 4.09230769230769  C 0 3.55384615384616  0.0516954441439583 2.71997567649741  0.355072463768117 2.08148373365765  C 0.658449483392275 1.44299179081788  0.838157894736842 1.31025641025641  1.05921052631579 1.10009796966319  C 1.28026315789474 0.889939529069969  1.43509465363012 0.78085199824331  1.79914707717911 0.579845275497452  C 2.16319950072811 0.378838552751593  2.58792732820193 0.20147967974055  2.86703418625616 0.154183980270935  C 3.14614104431038 0.106888280801324  3.69447375437228 0.0748191977801706  3.95919145690313 0.0897435897435897  C 4.3255743049416 0.11039971202224  4.66302614243118 0.213303604607951  4.66302614243118 0.213303604607951  Z " stroke-width="2" stroke="#6b6b6b" fill="none" transform="matrix(1 0 0 1 71 756 )" mask="url(#clip906)" />
  </g>
</svg>