<?xml version="1.0" encoding="utf-8"?>
<svg version="1.1" xmlns:xlink="http://www.w3.org/1999/xlink" width="16px" height="16px" viewBox="188 209  16 16" xmlns="http://www.w3.org/2000/svg">
  <path d="M 196 209  C 200.48 209  204 212.52  204 217  C 204 221.48  200.48 225  196 225  C 191.52 225  188 221.48  188 217  C 188 212.52  191.52 209  196 209  Z " fill-rule="nonzero" fill="#ffffff" stroke="none" />
  <path d="M 196 209.5  C 200.2 209.5  203.5 212.8  203.5 217  C 203.5 221.2  200.2 224.5  196 224.5  C 191.8 224.5  188.5 221.2  188.5 217  C 188.5 212.8  191.8 209.5  196 209.5  Z " stroke-width="1" stroke="#797979" fill="none" />
  <path d="M 196 221  C 193.76 221  192 219.24  192 217  C 192 214.76  193.76 213  196 213  C 198.24 213  200 214.76  200 217  C 200 219.24  198.24 221  196 221  " fill-rule="nonzero" fill="#797979" stroke="none" />
</svg>