<?xml version="1.0" encoding="utf-8"?>
<svg version="1.1" xmlns:xlink="http://www.w3.org/1999/xlink" width="16px" height="16px" viewBox="274 502  16 16" xmlns="http://www.w3.org/2000/svg">
  <path d="M 282 502  C 286.48 502  290 505.52  290 510  C 290 514.48  286.48 518  282 518  C 277.52 518  274 514.48  274 510  C 274 505.52  277.52 502  282 502  Z " fill-rule="nonzero" fill="#ffffff" stroke="none" />
  <path d="M 282 502.5  C 286.2 502.5  289.5 505.8  289.5 510  C 289.5 514.2  286.2 517.5  282 517.5  C 277.8 517.5  274.5 514.2  274.5 510  C 274.5 505.8  277.8 502.5  282 502.5  Z " stroke-width="1" stroke="#797979" fill="none" />
  <path d="M 282 514  C 279.76 514  278 512.24  278 510  C 278 507.76  279.76 506  282 506  C 284.24 506  286 507.76  286 510  C 286 512.24  284.24 514  282 514  " fill-rule="nonzero" fill="#797979" stroke="none" />
</svg>