<?xml version="1.0" encoding="utf-8"?>
<svg version="1.1" xmlns:xlink="http://www.w3.org/1999/xlink" width="80px" height="58px" xmlns="http://www.w3.org/2000/svg">
  <defs>
    <mask fill="white" id="clip899">
      <path d="M 49.6028368794326 55.6719480911423  C 46.8307626909461 57.1041654277689  43.9701382663531 58.0196115425957  40.1399416909621 57.9177304964539  C 40.0408480698321 57.921369953157  39.942401629889 57.9243429049502  39.8445876664472 57.9266575618033  C 36.0220585732282 58.0171133909148  33.1654564219096 57.1022119980453  30.3971631205674 55.6719480911423  C 28.7221598904609 54.8065424410959  26.3619637344252 52.8405118787178  24.3687943262411 51.5876464966551  C 23.123193048846 50.701115805415  20.6808510638298 49.2537598712339  20.6808510638298 49.2537598712339  C 20.6808510638298 49.2537598712339  17.9881696197954 48.0969813416714  15.8581560283688 47.7221467733011  C 13.5673658372895 47.3190191331977  7.34751773049646 47.1386751169458  7.34751773049646 47.1386751169458  C 7.34751773049646 47.1386751169458  1.17730496453901 46.117599718324  0.326241134751774 40.7934208540818  C -0.524822695035459 35.4692419898396  3.65957446808512 33.5000251496404  3.65957446808512 33.5000251496404  C 3.65957446808512 33.5000251496404  0.96453900709223 29.0510537699311  2.80851063829789 25.5502238317992  C 4.65248226950355 22.0493938936673  7.34751773049646 22.1952618077562  7.34751773049646 22.1952618077562  C 7.34751773049646 22.1952618077562  6.7871720116618 17.7299174989145  9.00291545189503 15.6911688687633  C 11.2186588921283 13.6524202386121  13.7142857142857 14.338399189463  13.7142857142857 14.338399189463  C 13.7142857142857 14.338399189463  13.9008746355685 11.2538924384343  16.5830903790087 8.85536463825651  C 19.265306122449 6.45683683807869  22.997084548105 8.01587990819427  22.997084548105 8.01587990819427  C 22.997084548105 8.01587990819427  23.2303206997085 4.65794098794533  27.4285714285714 2.97897152782085  C 31.6268221574344 1.30000206769638  34.0758017492711 4.05830903790087  34.0758017492711 4.05830903790087  C 34.0758017492711 4.05830903790087  36.2379292087816 0.196502433288161  40.00012939164 0.218081630475397  C 43.762169942018 0.196679527941429  45.9241982507289 4.05830903790087  45.9241982507289 4.05830903790087  C 45.9241982507289 4.05830903790087  48.3731778425656 1.30000206769638  52.5714285714286 2.97897152782085  C 56.7696793002915 4.65794098794533  57.002915451895 8.01587990819427  57.002915451895 8.01587990819427  C 57.002915451895 8.01587990819427  60.734693877551 6.45683683807869  63.4169096209913 8.85536463825651  C 66.0991253644315 11.2538924384343  66.2857142857143 14.338399189463  66.2857142857143 14.338399189463  C 66.2857142857143 14.338399189463  68.7813411078717 13.6524202386121  70.997084548105 15.6911688687633  C 73.2128279883382 17.7299174989145  72.6524822695035 22.1952618077562  72.6524822695035 22.1952618077562  C 72.6524822695035 22.1952618077562  75.3475177304965 22.0493938936673  77.1914893617021 25.5502238317992  C 79.0354609929078 29.0510537699311  76.3404255319149 33.5000251496404  76.3404255319149 33.5000251496404  C 76.3404255319149 33.5000251496404  80.5248226950355 35.4692419898396  79.6737588652482 40.7934208540818  C 78.822695035461 46.117599718324  72.6524822695035 47.1386751169458  72.6524822695035 47.1386751169458  C 72.6524822695035 47.1386751169458  66.4326341627105 47.3190191331977  64.1418439716312 47.7221467733011  C 62.0118303802046 48.0969813416714  59.3191489361702 49.2537598712339  59.3191489361702 49.2537598712339  C 59.3191489361702 49.2537598712339  56.876806951154 50.701115805415  55.6312056737589 51.5876464966551  C 53.6380362655748 52.8405118787178  51.2778401095391 54.8065424410959  49.6028368794326 55.6719480911423  Z " fill-rule="evenodd" />
    </mask>
  </defs>
  <g transform="matrix(1 0 0 1 -840 -415 )">
    <path d="M 49.6028368794326 55.6719480911423  C 46.8307626909461 57.1041654277689  43.9701382663531 58.0196115425957  40.1399416909621 57.9177304964539  C 40.0408480698321 57.921369953157  39.942401629889 57.9243429049502  39.8445876664472 57.9266575618033  C 36.0220585732282 58.0171133909148  33.1654564219096 57.1022119980453  30.3971631205674 55.6719480911423  C 28.7221598904609 54.8065424410959  26.3619637344252 52.8405118787178  24.3687943262411 51.5876464966551  C 23.123193048846 50.701115805415  20.6808510638298 49.2537598712339  20.6808510638298 49.2537598712339  C 20.6808510638298 49.2537598712339  17.9881696197954 48.0969813416714  15.8581560283688 47.7221467733011  C 13.5673658372895 47.3190191331977  7.34751773049646 47.1386751169458  7.34751773049646 47.1386751169458  C 7.34751773049646 47.1386751169458  1.17730496453901 46.117599718324  0.326241134751774 40.7934208540818  C -0.524822695035459 35.4692419898396  3.65957446808512 33.5000251496404  3.65957446808512 33.5000251496404  C 3.65957446808512 33.5000251496404  0.96453900709223 29.0510537699311  2.80851063829789 25.5502238317992  C 4.65248226950355 22.0493938936673  7.34751773049646 22.1952618077562  7.34751773049646 22.1952618077562  C 7.34751773049646 22.1952618077562  6.7871720116618 17.7299174989145  9.00291545189503 15.6911688687633  C 11.2186588921283 13.6524202386121  13.7142857142857 14.338399189463  13.7142857142857 14.338399189463  C 13.7142857142857 14.338399189463  13.9008746355685 11.2538924384343  16.5830903790087 8.85536463825651  C 19.265306122449 6.45683683807869  22.997084548105 8.01587990819427  22.997084548105 8.01587990819427  C 22.997084548105 8.01587990819427  23.2303206997085 4.65794098794533  27.4285714285714 2.97897152782085  C 31.6268221574344 1.30000206769638  34.0758017492711 4.05830903790087  34.0758017492711 4.05830903790087  C 34.0758017492711 4.05830903790087  36.2379292087816 0.196502433288161  40.00012939164 0.218081630475397  C 43.762169942018 0.196679527941429  45.9241982507289 4.05830903790087  45.9241982507289 4.05830903790087  C 45.9241982507289 4.05830903790087  48.3731778425656 1.30000206769638  52.5714285714286 2.97897152782085  C 56.7696793002915 4.65794098794533  57.002915451895 8.01587990819427  57.002915451895 8.01587990819427  C 57.002915451895 8.01587990819427  60.734693877551 6.45683683807869  63.4169096209913 8.85536463825651  C 66.0991253644315 11.2538924384343  66.2857142857143 14.338399189463  66.2857142857143 14.338399189463  C 66.2857142857143 14.338399189463  68.7813411078717 13.6524202386121  70.997084548105 15.6911688687633  C 73.2128279883382 17.7299174989145  72.6524822695035 22.1952618077562  72.6524822695035 22.1952618077562  C 72.6524822695035 22.1952618077562  75.3475177304965 22.0493938936673  77.1914893617021 25.5502238317992  C 79.0354609929078 29.0510537699311  76.3404255319149 33.5000251496404  76.3404255319149 33.5000251496404  C 76.3404255319149 33.5000251496404  80.5248226950355 35.4692419898396  79.6737588652482 40.7934208540818  C 78.822695035461 46.117599718324  72.6524822695035 47.1386751169458  72.6524822695035 47.1386751169458  C 72.6524822695035 47.1386751169458  66.4326341627105 47.3190191331977  64.1418439716312 47.7221467733011  C 62.0118303802046 48.0969813416714  59.3191489361702 49.2537598712339  59.3191489361702 49.2537598712339  C 59.3191489361702 49.2537598712339  56.876806951154 50.701115805415  55.6312056737589 51.5876464966551  C 53.6380362655748 52.8405118787178  51.2778401095391 54.8065424410959  49.6028368794326 55.6719480911423  Z " fill-rule="nonzero" fill="#ffffff" stroke="none" fill-opacity="0" transform="matrix(1 0 0 1 840 415 )" />
    <path d="M 49.6028368794326 55.6719480911423  C 46.8307626909461 57.1041654277689  43.9701382663531 58.0196115425957  40.1399416909621 57.9177304964539  C 40.0408480698321 57.921369953157  39.942401629889 57.9243429049502  39.8445876664472 57.9266575618033  C 36.0220585732282 58.0171133909148  33.1654564219096 57.1022119980453  30.3971631205674 55.6719480911423  C 28.7221598904609 54.8065424410959  26.3619637344252 52.8405118787178  24.3687943262411 51.5876464966551  C 23.123193048846 50.701115805415  20.6808510638298 49.2537598712339  20.6808510638298 49.2537598712339  C 20.6808510638298 49.2537598712339  17.9881696197954 48.0969813416714  15.8581560283688 47.7221467733011  C 13.5673658372895 47.3190191331977  7.34751773049646 47.1386751169458  7.34751773049646 47.1386751169458  C 7.34751773049646 47.1386751169458  1.17730496453901 46.117599718324  0.326241134751774 40.7934208540818  C -0.524822695035459 35.4692419898396  3.65957446808512 33.5000251496404  3.65957446808512 33.5000251496404  C 3.65957446808512 33.5000251496404  0.96453900709223 29.0510537699311  2.80851063829789 25.5502238317992  C 4.65248226950355 22.0493938936673  7.34751773049646 22.1952618077562  7.34751773049646 22.1952618077562  C 7.34751773049646 22.1952618077562  6.7871720116618 17.7299174989145  9.00291545189503 15.6911688687633  C 11.2186588921283 13.6524202386121  13.7142857142857 14.338399189463  13.7142857142857 14.338399189463  C 13.7142857142857 14.338399189463  13.9008746355685 11.2538924384343  16.5830903790087 8.85536463825651  C 19.265306122449 6.45683683807869  22.997084548105 8.01587990819427  22.997084548105 8.01587990819427  C 22.997084548105 8.01587990819427  23.2303206997085 4.65794098794533  27.4285714285714 2.97897152782085  C 31.6268221574344 1.30000206769638  34.0758017492711 4.05830903790087  34.0758017492711 4.05830903790087  C 34.0758017492711 4.05830903790087  36.2379292087816 0.196502433288161  40.00012939164 0.218081630475397  C 43.762169942018 0.196679527941429  45.9241982507289 4.05830903790087  45.9241982507289 4.05830903790087  C 45.9241982507289 4.05830903790087  48.3731778425656 1.30000206769638  52.5714285714286 2.97897152782085  C 56.7696793002915 4.65794098794533  57.002915451895 8.01587990819427  57.002915451895 8.01587990819427  C 57.002915451895 8.01587990819427  60.734693877551 6.45683683807869  63.4169096209913 8.85536463825651  C 66.0991253644315 11.2538924384343  66.2857142857143 14.338399189463  66.2857142857143 14.338399189463  C 66.2857142857143 14.338399189463  68.7813411078717 13.6524202386121  70.997084548105 15.6911688687633  C 73.2128279883382 17.7299174989145  72.6524822695035 22.1952618077562  72.6524822695035 22.1952618077562  C 72.6524822695035 22.1952618077562  75.3475177304965 22.0493938936673  77.1914893617021 25.5502238317992  C 79.0354609929078 29.0510537699311  76.3404255319149 33.5000251496404  76.3404255319149 33.5000251496404  C 76.3404255319149 33.5000251496404  80.5248226950355 35.4692419898396  79.6737588652482 40.7934208540818  C 78.822695035461 46.117599718324  72.6524822695035 47.1386751169458  72.6524822695035 47.1386751169458  C 72.6524822695035 47.1386751169458  66.4326341627105 47.3190191331977  64.1418439716312 47.7221467733011  C 62.0118303802046 48.0969813416714  59.3191489361702 49.2537598712339  59.3191489361702 49.2537598712339  C 59.3191489361702 49.2537598712339  56.876806951154 50.701115805415  55.6312056737589 51.5876464966551  C 53.6380362655748 52.8405118787178  51.2778401095391 54.8065424410959  49.6028368794326 55.6719480911423  Z " stroke-width="2" stroke="#1565c0" fill="none" transform="matrix(1 0 0 1 840 415 )" mask="url(#clip899)" />
  </g>
</svg>