<?xml version="1.0" encoding="utf-8"?>
<svg version="1.1" xmlns:xlink="http://www.w3.org/1999/xlink" width="29px" height="29px" xmlns="http://www.w3.org/2000/svg">
  <defs>
    <mask fill="white" id="clip900">
      <path d="M 19.3182511615006 0.883686361947224  L 21.8319464669579 2.10830715178541  C 21.8319464669579 2.10830715178541  23.605792430335 3.3947499184894  24.0439983357604 3.82277625755888  C 24.6487748864754 4.41350378941718  26.1555023923445 6.04786324786324  26.1555023923445 6.04786324786324  C 26.1555023923445 6.04786324786324  23.1893419319049 4.01871558393298  21.3794813119756 3.28394311003006  C 19.5696206920463 2.54917063612715  18.1822800482193 2.08835570088034  17.6089383537896 2.10830715178541  C 16.2012689827335 2.15729198337895  15.1957908605506 1.91236782541131  13.7378475833854 2.10830715178541  C 12.2799043062201 2.30424647815951  11.2948553309212 2.56269427356496  9.71593509465364 3.28394311003006  C 5.94352467708926 5.00717558361536  4.57894736842105 8.22905982905982  4.57894736842105 8.22905982905982  C 4.57894736842105 8.22905982905982  3.00175438596492 10.608547008547  3.10350877192982 13.9794871794872  C 3.20526315789473 17.3504273504273  5.24155745093962 20.1264957264957  5.24155745093962 20.1264957264957  C 5.24155745093962 20.1264957264957  7.47894736842106 24.4888888888889  14.6017543859649 24.5880341880342  C 21.7245614035088 24.6871794871795  23.4733848770149 21.2555926187989  24.0439983357604 20.3979076114424  C 24.6146117945058 19.5402226040859  25.5943702884017 17.6619663735301  25.3436613873712 14.3886081067422  C 25.0929524863407 11.1152498399542  23.739124420776 9.30757437919066  22.4368421052632 8.22905982905982  C 21.1345597897503 7.15054527892899  19.7779237844941 6.37620876714174  16.5350877192983 6.04786324786324  C 13.2922516541024 5.71951772858474  10.1245614035088 7.63418803418802  10.1245614035088 7.63418803418802  C 10.1245614035088 7.63418803418802  11.1738783718189 6.07607851086115  13.0842868039665 5.43927570014527  C 14.994695236114 4.80247288942943  16.4023646071701 4.4105942366812  18.2122252270994 4.55754873146179  C 20.0220858470286 4.70450322624235  21.2789334997573 4.99841221580353  22.9882463074683 5.73318468970644  C 24.6975591151793 6.46795716360935  26.1555023923445 8.22905982905982  26.1555023923445 8.22905982905982  C 26.1555023923445 8.22905982905982  27.7026315789474 9.62948717948717  28.3513157894737 12.3435897435897  C 29 15.0576923076923  28.8855263157895 17.8089743589744  28.3513157894737 19.3705128205129  C 27.817105263158 20.9320512820514  26.5532805079858 23.4411135761314  23.6578947368421 25.7189959798655  C 20.7627320109257 27.9967029075703  18.0868421052632 28.5538461538462  16.0001733582969 28.6282051282051  C 13.9135046113307 28.7025641025641  10.0355263157895 28.5538461538462  5.54320088759448 25.3271173271173  C 1.05087545939949 22.1003885003885  0.457894736842101 19.1846153846154  0.22894736842105 16.9538461538462  C 0 14.7230769230769  0.21416684002497 11.268470659775  1.47101449275363 8.62328975372454  C 2.72786214548228 5.97810884767408  3.47236842105263 5.42820512820514  4.38815789473684 4.55754873146179  C 5.30394736842105 3.68689233471844  5.94539213646764 3.23495827843657  7.45360931974204 2.40221614134659  C 8.96182650301644 1.5694740042566  10.7214132168366 0.834701530353709  11.8777130573469 0.638762203979586  C 13.0340128978573 0.442822877605484  15.3056769823994 0.309965247946421  16.4023646071701 0.371794871794872  C 17.9202364061866 0.457370235520708  19.3182511615006 0.883686361947224  19.3182511615006 0.883686361947224  Z " fill-rule="evenodd" />
    </mask>
  </defs>
  <g transform="matrix(1 0 0 1 -852 -432 )">
    <path d="M 19.3182511615006 0.883686361947224  L 21.8319464669579 2.10830715178541  C 21.8319464669579 2.10830715178541  23.605792430335 3.3947499184894  24.0439983357604 3.82277625755888  C 24.6487748864754 4.41350378941718  26.1555023923445 6.04786324786324  26.1555023923445 6.04786324786324  C 26.1555023923445 6.04786324786324  23.1893419319049 4.01871558393298  21.3794813119756 3.28394311003006  C 19.5696206920463 2.54917063612715  18.1822800482193 2.08835570088034  17.6089383537896 2.10830715178541  C 16.2012689827335 2.15729198337895  15.1957908605506 1.91236782541131  13.7378475833854 2.10830715178541  C 12.2799043062201 2.30424647815951  11.2948553309212 2.56269427356496  9.71593509465364 3.28394311003006  C 5.94352467708926 5.00717558361536  4.57894736842105 8.22905982905982  4.57894736842105 8.22905982905982  C 4.57894736842105 8.22905982905982  3.00175438596492 10.608547008547  3.10350877192982 13.9794871794872  C 3.20526315789473 17.3504273504273  5.24155745093962 20.1264957264957  5.24155745093962 20.1264957264957  C 5.24155745093962 20.1264957264957  7.47894736842106 24.4888888888889  14.6017543859649 24.5880341880342  C 21.7245614035088 24.6871794871795  23.4733848770149 21.2555926187989  24.0439983357604 20.3979076114424  C 24.6146117945058 19.5402226040859  25.5943702884017 17.6619663735301  25.3436613873712 14.3886081067422  C 25.0929524863407 11.1152498399542  23.739124420776 9.30757437919066  22.4368421052632 8.22905982905982  C 21.1345597897503 7.15054527892899  19.7779237844941 6.37620876714174  16.5350877192983 6.04786324786324  C 13.2922516541024 5.71951772858474  10.1245614035088 7.63418803418802  10.1245614035088 7.63418803418802  C 10.1245614035088 7.63418803418802  11.1738783718189 6.07607851086115  13.0842868039665 5.43927570014527  C 14.994695236114 4.80247288942943  16.4023646071701 4.4105942366812  18.2122252270994 4.55754873146179  C 20.0220858470286 4.70450322624235  21.2789334997573 4.99841221580353  22.9882463074683 5.73318468970644  C 24.6975591151793 6.46795716360935  26.1555023923445 8.22905982905982  26.1555023923445 8.22905982905982  C 26.1555023923445 8.22905982905982  27.7026315789474 9.62948717948717  28.3513157894737 12.3435897435897  C 29 15.0576923076923  28.8855263157895 17.8089743589744  28.3513157894737 19.3705128205129  C 27.817105263158 20.9320512820514  26.5532805079858 23.4411135761314  23.6578947368421 25.7189959798655  C 20.7627320109257 27.9967029075703  18.0868421052632 28.5538461538462  16.0001733582969 28.6282051282051  C 13.9135046113307 28.7025641025641  10.0355263157895 28.5538461538462  5.54320088759448 25.3271173271173  C 1.05087545939949 22.1003885003885  0.457894736842101 19.1846153846154  0.22894736842105 16.9538461538462  C 0 14.7230769230769  0.21416684002497 11.268470659775  1.47101449275363 8.62328975372454  C 2.72786214548228 5.97810884767408  3.47236842105263 5.42820512820514  4.38815789473684 4.55754873146179  C 5.30394736842105 3.68689233471844  5.94539213646764 3.23495827843657  7.45360931974204 2.40221614134659  C 8.96182650301644 1.5694740042566  10.7214132168366 0.834701530353709  11.8777130573469 0.638762203979586  C 13.0340128978573 0.442822877605484  15.3056769823994 0.309965247946421  16.4023646071701 0.371794871794872  C 17.9202364061866 0.457370235520708  19.3182511615006 0.883686361947224  19.3182511615006 0.883686361947224  Z " fill-rule="nonzero" fill="#1565c0" stroke="none" transform="matrix(1 0 0 1 852 432 )" />
    <path d="M 19.3182511615006 0.883686361947224  L 21.8319464669579 2.10830715178541  C 21.8319464669579 2.10830715178541  23.605792430335 3.3947499184894  24.0439983357604 3.82277625755888  C 24.6487748864754 4.41350378941718  26.1555023923445 6.04786324786324  26.1555023923445 6.04786324786324  C 26.1555023923445 6.04786324786324  23.1893419319049 4.01871558393298  21.3794813119756 3.28394311003006  C 19.5696206920463 2.54917063612715  18.1822800482193 2.08835570088034  17.6089383537896 2.10830715178541  C 16.2012689827335 2.15729198337895  15.1957908605506 1.91236782541131  13.7378475833854 2.10830715178541  C 12.2799043062201 2.30424647815951  11.2948553309212 2.56269427356496  9.71593509465364 3.28394311003006  C 5.94352467708926 5.00717558361536  4.57894736842105 8.22905982905982  4.57894736842105 8.22905982905982  C 4.57894736842105 8.22905982905982  3.00175438596492 10.608547008547  3.10350877192982 13.9794871794872  C 3.20526315789473 17.3504273504273  5.24155745093962 20.1264957264957  5.24155745093962 20.1264957264957  C 5.24155745093962 20.1264957264957  7.47894736842106 24.4888888888889  14.6017543859649 24.5880341880342  C 21.7245614035088 24.6871794871795  23.4733848770149 21.2555926187989  24.0439983357604 20.3979076114424  C 24.6146117945058 19.5402226040859  25.5943702884017 17.6619663735301  25.3436613873712 14.3886081067422  C 25.0929524863407 11.1152498399542  23.739124420776 9.30757437919066  22.4368421052632 8.22905982905982  C 21.1345597897503 7.15054527892899  19.7779237844941 6.37620876714174  16.5350877192983 6.04786324786324  C 13.2922516541024 5.71951772858474  10.1245614035088 7.63418803418802  10.1245614035088 7.63418803418802  C 10.1245614035088 7.63418803418802  11.1738783718189 6.07607851086115  13.0842868039665 5.43927570014527  C 14.994695236114 4.80247288942943  16.4023646071701 4.4105942366812  18.2122252270994 4.55754873146179  C 20.0220858470286 4.70450322624235  21.2789334997573 4.99841221580353  22.9882463074683 5.73318468970644  C 24.6975591151793 6.46795716360935  26.1555023923445 8.22905982905982  26.1555023923445 8.22905982905982  C 26.1555023923445 8.22905982905982  27.7026315789474 9.62948717948717  28.3513157894737 12.3435897435897  C 29 15.0576923076923  28.8855263157895 17.8089743589744  28.3513157894737 19.3705128205129  C 27.817105263158 20.9320512820514  26.5532805079858 23.4411135761314  23.6578947368421 25.7189959798655  C 20.7627320109257 27.9967029075703  18.0868421052632 28.5538461538462  16.0001733582969 28.6282051282051  C 13.9135046113307 28.7025641025641  10.0355263157895 28.5538461538462  5.54320088759448 25.3271173271173  C 1.05087545939949 22.1003885003885  0.457894736842101 19.1846153846154  0.22894736842105 16.9538461538462  C 0 14.7230769230769  0.21416684002497 11.268470659775  1.47101449275363 8.62328975372454  C 2.72786214548228 5.97810884767408  3.47236842105263 5.42820512820514  4.38815789473684 4.55754873146179  C 5.30394736842105 3.68689233471844  5.94539213646764 3.23495827843657  7.45360931974204 2.40221614134659  C 8.96182650301644 1.5694740042566  10.7214132168366 0.834701530353709  11.8777130573469 0.638762203979586  C 13.0340128978573 0.442822877605484  15.3056769823994 0.309965247946421  16.4023646071701 0.371794871794872  C 17.9202364061866 0.457370235520708  19.3182511615006 0.883686361947224  19.3182511615006 0.883686361947224  Z " stroke-width="2" stroke="#1565c0" fill="none" transform="matrix(1 0 0 1 852 432 )" mask="url(#clip900)" />
  </g>
</svg>