<?xml version="1.0" encoding="utf-8"?>
<svg version="1.1" xmlns:xlink="http://www.w3.org/1999/xlink" width="18px" height="37px" xmlns="http://www.w3.org/2000/svg">
  <g transform="matrix(1 0 0 1 -1779 -289 )">
    <path d="M 17.6907216494845 17.6472945891784  C 17.8969072164948 17.8944555778223  18 18.1786907147629  18 18.5  C 18 18.8213092852371  17.8969072164948 19.1055444221777  17.6907216494845 19.3527054108216  L 3.27835051546392 36.6292585170341  C 3.07216494845361 36.876419505678  2.83505154639175 37  2.56701030927835 37  C 2.29896907216495 37  2.06185567010309 36.876419505678  1.85567010309278 36.6292585170341  L 0.309278350515464 34.7755511022044  C 0.103092783505155 34.5283901135605  0 34.2441549766199  0 33.9228456913828  C 0 33.6015364061456  0.103092783505155 33.3173012692051  0.309278350515464 33.0701402805611  L 12.4639175257732 18.5  L 0.309278350515464 3.92985971943888  C 0.103092783505155 3.68269873079492  0 3.39846359385437  0 3.07715430861724  C 0 2.75584502338009  0.103092783505155 2.47160988643954  0.309278350515464 2.22444889779559  L 1.85567010309278 0.370741482965932  C 2.06185567010309 0.123580494321976  2.29896907216495 0  2.56701030927835 0  C 2.83505154639175 0  3.07216494845361 0.123580494321976  3.27835051546392 0.370741482965932  L 17.6907216494845 17.6472945891784  Z " fill-rule="nonzero" fill="#999999" stroke="none" transform="matrix(1 0 0 1 1779 289 )" />
  </g>
</svg>